<?xml version="1.0" encoding="UTF-8" standalone="no"?>
<svg
   xmlns:dc="http://purl.org/dc/elements/1.1/"
   xmlns:cc="http://creativecommons.org/ns#"
   xmlns:rdf="http://www.w3.org/1999/02/22-rdf-syntax-ns#"
   xmlns:svg="http://www.w3.org/2000/svg"
   xmlns="http://www.w3.org/2000/svg"
   xmlns:sodipodi="http://sodipodi.sourceforge.net/DTD/sodipodi-0.dtd"
   xmlns:inkscape="http://www.inkscape.org/namespaces/inkscape"
   height="50"
   width="210"
   version="1.1"
   id="svg981"
   sodipodi:docname="download.svg"
   inkscape:version="0.92.4 5da689c313, 2019-01-14">
  <metadata
     id="metadata985">
    <rdf:RDF>
      <cc:Work
         rdf:about="">
        <dc:format>image/svg+xml</dc:format>
        <dc:type
           rdf:resource="http://purl.org/dc/dcmitype/StillImage" />
      </cc:Work>
    </rdf:RDF>
  </metadata>
  <sodipodi:namedview
     pagecolor="#ffffff"
     bordercolor="#666666"
     borderopacity="1"
     objecttolerance="10"
     gridtolerance="10"
     guidetolerance="10"
     inkscape:pageopacity="0"
     inkscape:pageshadow="2"
     inkscape:window-width="1880"
     inkscape:window-height="1015"
     id="namedview983"
     showgrid="false"
     inkscape:zoom="1.9571429"
     inkscape:cx="-3.4697187"
     inkscape:cy="69.594023"
     inkscape:window-x="20"
     inkscape:window-y="45"
     inkscape:window-maximized="0"
     inkscape:current-layer="svg981" />
  <defs
     id="defs951">
    <radialGradient
       id="gra1"
       gradientUnits="userSpaceOnUse"
       cy="20.494"
       cx="35.293"
       gradientTransform="matrix(0,-0.843022,1.020168,0,0.606436,42.58614)"
       r="16.956">
      <stop
         stop-color="#73d216"
         offset="0"
         id="stop934" />
      <stop
         stop-color="#4e9a06"
         offset="1"
         id="stop936" />
    </radialGradient>
    <radialGradient
       id="gra2"
       gradientUnits="userSpaceOnUse"
       cy="1.535"
       cx="15.987"
       gradientTransform="matrix(0,-2.046729,-1.55761,0,44.11559,66.93275)"
       r="17.171">
      <stop
         stop-color="#FFF"
         offset="0"
         id="stop939" />
      <stop
         stop-color="#FFF"
         stop-opacity="0"
         offset="1"
         id="stop941" />
    </radialGradient>
    <linearGradient
       id="gra3"
       y2="-2.4318"
       gradientUnits="userSpaceOnUse"
       x2="68.467"
       gradientTransform="matrix(1.5371422,0,0,1.0631029,-0.71726347,2.6007275)"
       y1="44.57"
       x1="68.467">
      <stop
         stop-color="#0065a5"
         offset="0"
         id="stop944" />
      <stop
         stop-color="#3eb4ff"
         offset="0.5"
         id="stop946" />
      <stop
         stop-color="#e3f4ff"
         offset="1"
         id="stop948" />
    </linearGradient>
  </defs>
  <rect
     ry="11.798"
     height="50"
     width="210"
     y="0"
     x="0"
     id="rect925"
     style="fill:#9b90ff;fill-opacity:1" />
  <g
     transform="rotate(180,25.174609,23.499901)"
     id="g933"
     style="fill:#ffffff;fill-opacity:1;stroke:#ffffff;stroke-width:1.00157475;stroke-miterlimit:4;stroke-dasharray:none;stroke-opacity:1">
    <path
       inkscape:connector-curvature="0"
       style="color:#000000;fill:#ffffff;fill-opacity:1;stroke:#ffffff;stroke-width:1.00157475;stroke-linecap:round;stroke-linejoin:round;stroke-miterlimit:4;stroke-dasharray:none;stroke-dashoffset:0;stroke-opacity:1"
       d="m 14.519,38.5 18.005,-0.0039 v -12.992 l 7.9954,-0.0078 -17.144,-19.997 -16.846,19.998 7.9954,0.004 -0.005,12.999 z"
       stroke-miterlimit="10"
       id="path927" />
    <path
       inkscape:connector-curvature="0"
       style="color:#000000;opacity:0.5080214;fill:#ffffff;fill-opacity:1;stroke:#ffffff;stroke-width:1.00157475;stroke-miterlimit:4;stroke-dasharray:none;stroke-opacity:1"
       d="m 39.43,24.993 -7.4064,0.01172 0.0027,12.993 -15.379,-0.0092 c 0.77,-18.341 10.722,-10.993 15.381,-21.647 l 7.4006,8.6515 z"
       id="path929" />
    <path
       inkscape:connector-curvature="0"
       style="color:#000000;opacity:0.48128339;fill:#ffffff;fill-opacity:1;stroke:#ffffff;stroke-width:1.00157475;stroke-linecap:butt;stroke-linejoin:miter;stroke-miterlimit:4;stroke-dasharray:none;stroke-dashoffset:0;stroke-opacity:1"
       d="m 15.521,37.496 16.001,0.0039 v -12.993 l 6.8168,-0.01563 -14.954,-17.452 -14.707,17.457 6.8399,0.0052 0.0027,12.995 z"
       stroke-miterlimit="10"
       id="path931" />
  </g>
  <g
     transform="translate(-1.3454999,1.65e-4)"
     id="g951"
     style="fill:#ffffff;fill-opacity:1;stroke:#ffffff;stroke-opacity:1">
    <path
       inkscape:connector-curvature="0"
       style="fill:#ffffff;fill-opacity:1;stroke:#ffffff;stroke-opacity:1"
       d="M 52.38,37.391 V 12.196 h 8.6791 c 1.9592,2.5e-5 3.4544,0.12033 4.4856,0.36091 1.4436,0.33229 2.6753,0.93382 3.6951,1.8046 1.3291,1.1229 2.323,2.5579 2.9818,4.3052 0.65879,1.7473 0.98819,3.7438 0.98821,5.9894 -2.4e-5,1.9134 -0.22345,3.6091 -0.67027,5.0872 -0.44687,1.478 -1.0197,2.7011 -1.7186,3.6693 -0.69893,0.96817 -1.4637,1.7301 -2.2944,2.2858 -0.83069,0.55569 -1.8332,0.97676 -3.0076,1.2632 -1.1744,0.28644 -2.5235,0.42966 -4.0474,0.42966 z m 3.3341,-2.9732 h 5.3793 c 1.6613,3e-6 2.9646,-0.15467 3.9099,-0.46403 0.94523,-0.30935 1.6986,-0.74474 2.26,-1.3062 0.79055,-0.79056 1.4064,-1.8533 1.8475,-3.1881 0.4411,-1.3348 0.66165,-2.9532 0.66167,-4.8551 -2e-5,-2.6352 -0.43254,-4.6603 -1.2976,-6.0754 -0.86506,-1.415 -1.9163,-2.3631 -3.1537,-2.8443 -0.8937,-0.3437 -2.3316,-0.51557 -4.3138,-0.51559 h -5.2934 z"
       id="path935" />
    <path
       inkscape:connector-curvature="0"
       style="fill:#ffffff;fill-opacity:1;stroke:#ffffff;stroke-opacity:1"
       d="m 75.389,28.265 c -10e-7,-3.38 0.93952,-5.8834 2.8186,-7.5104 1.5697,-1.352 3.4831,-2.028 5.7402,-2.028 2.5092,1.9e-5 4.5601,0.8221 6.1527,2.4662 1.5926,1.6442 2.3889,3.9156 2.3889,6.8144 -1.9e-5,2.3488 -0.35234,4.1963 -1.057,5.5426 -0.70466,1.3463 -1.7301,2.3918 -3.0764,3.1365 -1.3463,0.74474 -2.8157,1.1171 -4.4083,1.1171 -2.555,0 -4.6203,-0.81921 -6.1957,-2.4576 -1.5754,-1.63839 -2.3631,-3.9987 -2.3631,-7.0808 z m 3.1795,0 c -4e-6,2.3373 0.50986,4.0875 1.5296,5.2504 1.01974,1.1629 2.303,1.7444 3.8497,1.7444 1.5353,2e-6 2.8128,-0.58433 3.8326,-1.753 1.0197,-1.1687 1.5296,-2.9503 1.5296,-5.3449 -1.5e-5,-2.2571 -0.51274,-3.9672 -1.5382,-5.1301 -1.02546,-1.1629 -2.3001,-1.7444 -3.824,-1.7444 -1.5468,1.6e-5 -2.83,0.57862 -3.8497,1.7358 -1.0197,1.15718 -1.5296,2.9045 -1.5296,5.2418 z"
       id="path937" />
    <path
       inkscape:connector-curvature="0"
       style="fill:#ffffff;fill-opacity:1;stroke:#ffffff;stroke-opacity:1"
       d="M 98.622,37.391 93.0364,19.139 h 3.1967 l 2.9045,10.535 1.0827,3.9185 c 0.0458,-0.19477 0.3609,-1.4494 0.94525,-3.7638 l 2.9045,-10.69 h 3.1795 l 2.7326,10.587 0.91088,3.4888 1.0484,-3.5232 3.1279,-10.552 h 3.0076 l -5.7059,18.252 h -3.2138 l -2.9045,-10.931 -0.70464,-3.1107 -3.6951,14.041 z"
       id="path939" />
    <path
       inkscape:connector-curvature="0"
       style="fill:#ffffff;fill-opacity:1;stroke:#ffffff;stroke-opacity:1"
       d="M 119.81,37.391 V 19.139 h 2.7842 v 2.5951 c 1.3405,-2.0051 3.2768,-3.0076 5.809,-3.0076 1.0999,1.9e-5 2.111,0.19766 3.0334,0.59293 0.92232,0.3953 1.6126,0.91376 2.071,1.5554 0.45829,0.64164 0.7791,1.4036 0.96244,2.2858 0.11456,0.57289 0.17184,1.5754 0.17186,3.0076 v 11.223 h -3.0935 v -11.102 c -10e-6,-1.2603 -0.12032,-2.2027 -0.36091,-2.8272 -0.24062,-0.62442 -0.66742,-1.1228 -1.2804,-1.4952 -0.61299,-0.37235 -1.332,-0.55854 -2.1569,-0.55856 -1.3176,1.6e-5 -2.4548,0.41822 -3.4115,1.2546 -0.95671,0.83642 -1.4351,2.4233 -1.4351,4.7606 v 9.9681 z"
       id="path941" />
    <path
       inkscape:connector-curvature="0"
       style="fill:#ffffff;fill-opacity:1;stroke:#ffffff;stroke-opacity:1"
       d="M 138.45,37.391 V 12.196 h 3.0935 v 25.195 z"
       id="path943" />
    <path
       inkscape:connector-curvature="0"
       style="fill:#ffffff;fill-opacity:1;stroke:#ffffff;stroke-opacity:1"
       d="m 144.33,28.265 c 0,-3.38 0.93952,-5.8834 2.8186,-7.5104 1.5697,-1.352 3.4831,-2.028 5.7402,-2.028 2.5092,1.9e-5 4.5601,0.8221 6.1527,2.4662 1.5926,1.6442 2.3889,3.9156 2.3889,6.8144 -2e-5,2.3488 -0.35234,4.1963 -1.057,5.5426 -0.70466,1.3463 -1.7301,2.3918 -3.0764,3.1365 -1.3463,0.74474 -2.8157,1.1171 -4.4083,1.1171 -2.555,0 -4.6203,-0.81921 -6.1957,-2.4576 -1.5754,-1.63839 -2.3631,-3.9987 -2.3631,-7.0808 z m 3.1795,0 c 0,2.3373 0.50986,4.0875 1.5296,5.2504 1.01974,1.1629 2.303,1.7444 3.8497,1.7444 1.5353,2e-6 2.8128,-0.58433 3.8326,-1.753 1.0197,-1.1687 1.5296,-2.9503 1.5296,-5.3449 -2e-5,-2.2571 -0.51274,-3.9672 -1.5382,-5.1301 -1.02546,-1.1629 -2.3001,-1.7444 -3.824,-1.7444 -1.5468,1.6e-5 -2.83,0.57862 -3.8497,1.7358 -1.0197,1.15718 -1.5296,2.9045 -1.5296,5.2418 z"
       id="path945" />
    <path
       inkscape:connector-curvature="0"
       style="fill:#ffffff;fill-opacity:1;stroke:#ffffff;stroke-opacity:1"
       d="m 176.1,35.14 c -1.1458,0.97389 -2.2486,1.6613 -3.3084,2.0624 -1.0598,0.40101 -2.197,0.60152 -3.4115,0.60152 -2.0051,0 -3.5461,-0.48981 -4.6231,-1.4694 -1.077,-0.97962 -1.6155,-2.2314 -1.6155,-3.7552 0,-0.89368 0.20337,-1.71 0.61012,-2.4491 0.40674,-0.739 0.93951,-1.3319 1.5983,-1.7788 0.65881,-0.44684 1.4007,-0.78483 2.2256,-1.014 0.60725,-0.1604 1.5238,-0.31507 2.7498,-0.46403 2.4977,-0.29788 4.3367,-0.65307 5.5168,-1.0656 0.0114,-0.42392 0.0172,-0.69317 0.0172,-0.80776 -1e-5,-1.2603 -0.29218,-2.1483 -0.8765,-2.6639 -0.79058,-0.69889 -1.965,-1.0483 -3.5232,-1.0484 -1.4551,1.6e-5 -2.5293,0.25495 -3.2224,0.76479 -0.69319,0.50988 -1.2059,1.4122 -1.5382,2.7068 l -3.0248,-0.41247 c 0.27498,-1.2947 0.72755,-2.3402 1.3577,-3.1365 0.63016,-0.79628 1.541,-1.4093 2.7326,-1.8389 1.1916,-0.42964 2.5722,-0.64447 4.1419,-0.64449 1.5582,1.9e-5 2.8243,0.18334 3.7982,0.54996 0.97388,0.36666 1.69,0.82782 2.1483,1.3835 0.45828,0.55571 0.77909,1.2575 0.96243,2.1053 0.1031,0.52706 0.15466,1.478 0.15468,2.8529 v 4.1247 c -2e-5,2.8758 0.0659,4.6947 0.19764,5.4567 0.13174,0.76193 0.3924,1.4923 0.78198,2.1913 h -3.231 c -0.32083,-0.64162 -0.52706,-1.3921 -0.61871,-2.2514 z m -0.25779,-6.9089 c -1.1229,0.45831 -2.8071,0.84787 -5.0528,1.1687 -1.2718,0.18333 -2.1712,0.38956 -2.6983,0.61871 -0.52705,0.22916 -0.93379,0.56429 -1.2202,1.0054 -0.28644,0.44112 -0.42966,0.93093 -0.42965,1.4694 -1e-5,0.82495 0.31221,1.5124 0.93665,2.0624 0.62443,0.54996 1.5382,0.82494 2.7412,0.82494 1.1916,2e-6 2.2514,-0.26066 3.1795,-0.78198 0.92805,-0.52132 1.6098,-1.2345 2.0452,-2.1397 0.33226,-0.6989 0.49839,-1.7301 0.49841,-3.0935 z"
       id="path947" />
    <path
       inkscape:connector-curvature="0"
       style="fill:#ffffff;fill-opacity:1;stroke:#ffffff;stroke-opacity:1"
       d="m 194.74,37.391 v -2.303 c -1.1572,1.8103 -2.8587,2.7154 -5.1043,2.7154 -1.4551,0 -2.7928,-0.40101 -4.013,-1.203 -1.2202,-0.80203 -2.1655,-1.922 -2.8357,-3.3599 -0.67027,-1.4379 -1.0054,-3.0907 -1.0054,-4.9583 0,-1.8217 0.30362,-3.4745 0.91087,-4.9583 0.60725,-1.4837 1.5181,-2.6209 2.7326,-3.4115 1.2145,-0.79055 2.5722,-1.1858 4.0732,-1.1859 1.0999,1.9e-5 2.0795,0.23203 2.9389,0.69605 0.8593,0.46405 1.5582,1.0684 2.0967,1.8132 v -9.04 h 3.0764 v 25.195 z m -9.779,-9.1088 c -1e-5,2.3373 0.49267,4.0846 1.478,5.2418 0.98534,1.1572 2.1483,1.7358 3.4888,1.7358 1.352,2e-6 2.5006,-0.55282 3.4458,-1.6585 0.94524,-1.1056 1.4179,-2.7928 1.4179,-5.0614 -2e-5,-2.4977 -0.48124,-4.3309 -1.4437,-5.4996 -0.96244,-1.1687 -2.1483,-1.753 -3.5576,-1.753 -1.3749,1.6e-5 -2.5235,0.56144 -3.4458,1.6843 -0.92234,1.1229 -1.3835,2.893 -1.3835,5.3106 z"
       id="path949" />
  </g>
</svg>
