<?xml version="1.0" encoding="UTF-8" standalone="no"?>
<svg
   xmlns:dc="http://purl.org/dc/elements/1.1/"
   xmlns:cc="http://creativecommons.org/ns#"
   xmlns:rdf="http://www.w3.org/1999/02/22-rdf-syntax-ns#"
   xmlns:svg="http://www.w3.org/2000/svg"
   xmlns="http://www.w3.org/2000/svg"
   xmlns:sodipodi="http://sodipodi.sourceforge.net/DTD/sodipodi-0.dtd"
   xmlns:inkscape="http://www.inkscape.org/namespaces/inkscape"
   viewBox="0 0 36 36"
   version="1.1"
   id="svg4624"
   sodipodi:docname="giveaway.svg"
   inkscape:version="0.92.4 5da689c313, 2019-01-14">
  <metadata
     id="metadata4630">
    <rdf:RDF>
      <cc:Work
         rdf:about="">
        <dc:format>image/svg+xml</dc:format>
        <dc:type
           rdf:resource="http://purl.org/dc/dcmitype/StillImage" />
      </cc:Work>
    </rdf:RDF>
  </metadata>
  <defs
     id="defs4628" />
  <sodipodi:namedview
     pagecolor="#ffffff"
     bordercolor="#666666"
     borderopacity="1"
     objecttolerance="10"
     gridtolerance="10"
     guidetolerance="10"
     inkscape:pageopacity="0"
     inkscape:pageshadow="2"
     inkscape:window-width="1840"
     inkscape:window-height="975"
     id="namedview4626"
     showgrid="false"
     inkscape:zoom="256"
     inkscape:cx="35.972378"
     inkscape:cy="0.66392407"
     inkscape:window-x="40"
     inkscape:window-y="65"
     inkscape:window-maximized="0"
     inkscape:current-layer="layer1" />
  <g
     inkscape:groupmode="layer"
     id="layer1"
     inkscape:label="Layer 1">
    <rect
       id="rect3774"
       width="36"
       height="36"
       x="0"
       y="0"
       style="fill:#ffffd2;fill-opacity:1;stroke-width:1.49925971" />
  </g>
  <path
     fill="#DD2E44"
     d="M11.626 7.488c-.112.112-.197.247-.268.395l-.008-.008L.134 33.141l.011.011c-.208.403.14 1.223.853 1.937.713.713 1.533 1.061 1.936.853l.01.01L28.21 24.735l-.008-.009c.147-.07.282-.155.395-.269 1.562-1.562-.971-6.627-5.656-11.313-4.687-4.686-9.752-7.218-11.315-5.656z"
     id="path4594" />
  <path
     fill="#EA596E"
     d="M13 12L.416 32.506l-.282.635.011.011c-.208.403.14 1.223.853 1.937.232.232.473.408.709.557L17 17l-4-5z"
     id="path4596" />
  <path
     fill="#A0041E"
     d="M23.012 13.066c4.67 4.672 7.263 9.652 5.789 11.124-1.473 1.474-6.453-1.118-11.126-5.788-4.671-4.672-7.263-9.654-5.79-11.127 1.474-1.473 6.454 1.119 11.127 5.791z"
     id="path4598" />
  <path
     fill="#AA8DD8"
     d="M18.59 13.609c-.199.161-.459.245-.734.215-.868-.094-1.598-.396-2.109-.873-.541-.505-.808-1.183-.735-1.862.128-1.192 1.324-2.286 3.363-2.066.793.085 1.147-.17 1.159-.292.014-.121-.277-.446-1.07-.532-.868-.094-1.598-.396-2.11-.873-.541-.505-.809-1.183-.735-1.862.13-1.192 1.325-2.286 3.362-2.065.578.062.883-.057 1.012-.134.103-.063.144-.123.148-.158.012-.121-.275-.446-1.07-.532-.549-.06-.947-.552-.886-1.102.059-.549.55-.946 1.101-.886 2.037.219 2.973 1.542 2.844 2.735-.13 1.194-1.325 2.286-3.364 2.067-.578-.063-.88.057-1.01.134-.103.062-.145.123-.149.157-.013.122.276.446 1.071.532 2.037.22 2.973 1.542 2.844 2.735-.129 1.192-1.324 2.286-3.362 2.065-.578-.062-.882.058-1.012.134-.104.064-.144.124-.148.158-.013.121.276.446 1.07.532.548.06.947.553.886 1.102-.028.274-.167.511-.366.671z"
     id="path4600" />
  <path
     fill="#77B255"
     d="M30.661 22.857c1.973-.557 3.334.323 3.658 1.478.324 1.154-.378 2.615-2.35 3.17-.77.216-1.001.584-.97.701.034.118.425.312 1.193.095 1.972-.555 3.333.325 3.657 1.479.326 1.155-.378 2.614-2.351 3.17-.769.216-1.001.585-.967.702.033.117.423.311 1.192.095.53-.149 1.084.16 1.233.691.148.532-.161 1.084-.693 1.234-1.971.555-3.333-.323-3.659-1.479-.324-1.154.379-2.613 2.353-3.169.77-.217 1.001-.584.967-.702-.032-.117-.422-.312-1.19-.096-1.974.556-3.334-.322-3.659-1.479-.325-1.154.378-2.613 2.351-3.17.768-.215.999-.585.967-.701-.034-.118-.423-.312-1.192-.096-.532.15-1.083-.16-1.233-.691-.149-.53.161-1.082.693-1.232z"
     id="path4602" />
  <path
     fill="#AA8DD8"
     d="M23.001 20.16c-.294 0-.584-.129-.782-.375-.345-.432-.274-1.061.156-1.406.218-.175 5.418-4.259 12.767-3.208.547.078.927.584.849 1.131-.078.546-.58.93-1.132.848-6.493-.922-11.187 2.754-11.233 2.791-.186.148-.406.219-.625.219z"
     id="path4604" />
  <path
     fill="#77B255"
     d="M5.754 16c-.095 0-.192-.014-.288-.042-.529-.159-.829-.716-.67-1.245 1.133-3.773 2.16-9.794.898-11.364-.141-.178-.354-.353-.842-.316-.938.072-.849 2.051-.848 2.071.042.551-.372 1.031-.922 1.072-.559.034-1.031-.372-1.072-.923-.103-1.379.326-4.035 2.692-4.214 1.056-.08 1.933.287 2.552 1.057 2.371 2.951-.036 11.506-.542 13.192-.13.433-.528.712-.958.712z"
     id="path4606" />
  <circle
     fill="#5C913B"
     cx="25.5"
     cy="9.5"
     r="1.5"
     id="circle4608" />
  <circle
     fill="#9266CC"
     cx="2"
     cy="18"
     r="2"
     id="circle4610" />
  <circle
     fill="#5C913B"
     cx="32.5"
     cy="19.5"
     r="1.5"
     id="circle4612" />
  <circle
     fill="#5C913B"
     cx="23.5"
     cy="31.5"
     r="1.5"
     id="circle4614" />
  <circle
     fill="#FFCC4D"
     cx="28"
     cy="4"
     r="2"
     id="circle4616" />
  <circle
     fill="#FFCC4D"
     cx="32.5"
     cy="8.5"
     r="1.5"
     id="circle4618" />
  <circle
     fill="#FFCC4D"
     cx="29.5"
     cy="12.5"
     r="1.5"
     id="circle4620" />
  <circle
     fill="#FFCC4D"
     cx="7.5"
     cy="23.5"
     r="1.5"
     id="circle4622" />
</svg>
